<svg width="95" height="21" viewBox="0 0 95 21" fill="none" xmlns="http://www.w3.org/2000/svg">
<path d="M94.6005 9.38614V7.72973H92.5438V5.15465L92.4747 5.17604L90.5049 5.7787V7.72973H87.4556V6.64211C87.4263 6.23034 87.5455 5.8217 87.7917 5.4903C87.9103 5.36016 88.0564 5.25808 88.2194 5.19146C88.3824 5.12485 88.5582 5.09537 88.734 5.10517C89.0429 5.10929 89.3474 5.17855 89.6277 5.30843L89.7035 5.34231V3.59943L89.6678 3.58651C89.2981 3.47262 88.912 3.42109 88.5254 3.43406C87.9611 3.42516 87.4038 3.55902 86.9051 3.8232C86.4367 4.07526 86.0507 4.45686 85.7934 4.92241C85.5259 5.41729 85.3904 5.97268 85.3998 6.53513V7.72973H83.9676V9.38614H85.3998V16.3634H87.4556V9.38614H90.5049V13.8187C90.5049 15.6462 91.3661 16.5703 93.0653 16.5703C93.3588 16.5686 93.6513 16.5362 93.9381 16.4735C94.1583 16.4361 94.3722 16.3683 94.5737 16.2721L94.6009 16.256V14.5845L94.5171 14.6397C94.3896 14.7204 94.2501 14.7806 94.1039 14.818C93.9722 14.8588 93.8356 14.882 93.6978 14.8871C93.5376 14.9011 93.3762 14.8798 93.225 14.8248C93.0738 14.7697 92.9366 14.6822 92.8228 14.5684C92.6064 14.2422 92.5079 13.8519 92.5438 13.4621V9.38614H94.6005ZM79.3755 14.8885C79.0474 14.9056 78.7197 14.8484 78.4168 14.7211C78.114 14.5938 77.8438 14.3998 77.6264 14.1534C77.1755 13.559 76.9525 12.8227 76.9979 12.078C76.9501 11.3159 77.1726 10.5614 77.6264 9.94733C77.8392 9.69919 78.1059 9.50293 78.4061 9.37353C78.7063 9.24414 79.0321 9.18502 79.3586 9.2007C79.6752 9.1855 79.9912 9.2417 80.2832 9.36515C80.5751 9.48861 80.8356 9.67615 81.0453 9.9139C81.4956 10.5225 81.7141 11.2719 81.6613 12.0272C81.7133 12.7852 81.5092 13.5386 81.0818 14.1668C80.8733 14.4117 80.6104 14.6044 80.3141 14.7296C80.0179 14.8547 79.6964 14.9097 79.3755 14.8885ZM79.4669 7.51845C78.8517 7.48462 78.2362 7.5772 77.6582 7.79048C77.0802 8.00377 76.5521 8.33322 76.1064 8.75852C75.6894 9.21381 75.3673 9.74758 75.1589 10.3287C74.9504 10.9098 74.8597 11.5266 74.8922 12.1431C74.8626 12.7337 74.9524 13.3242 75.156 13.8793C75.3596 14.4345 75.673 14.9429 76.0774 15.3743C76.4988 15.779 76.9982 16.0935 77.5452 16.2987C78.0921 16.504 78.6752 16.5956 79.2587 16.568C79.8649 16.5978 80.4706 16.5015 81.0376 16.2851C81.6046 16.0688 82.1206 15.7371 82.5528 15.311C82.9663 14.8602 83.2865 14.332 83.4949 13.7568C83.7033 13.1817 83.7957 12.571 83.767 11.9599C83.8318 10.7674 83.4224 9.59772 82.6281 8.70592C82.2121 8.3 81.7163 7.98495 81.1721 7.78076C80.6279 7.57657 80.0472 7.4877 79.4669 7.51979V7.51845ZM71.5771 7.51979C70.7222 7.48362 69.881 7.74356 69.1955 8.25572C68.9007 8.47949 68.663 8.76976 68.5018 9.10285C68.3405 9.43594 68.2602 9.80243 68.2675 10.1724C68.2603 10.539 68.3284 10.9031 68.4676 11.2422C68.6057 11.5547 68.8163 11.8297 69.0818 12.0446C69.4647 12.3324 69.8845 12.5675 70.3299 12.7435C70.6861 12.8834 71.0332 13.045 71.3694 13.2276C71.5463 13.3199 71.7022 13.4478 71.8272 13.6034C71.9188 13.7499 71.9631 13.9211 71.9542 14.0937C71.9542 14.6732 71.5201 14.9558 70.6259 14.9558C70.2429 14.9466 69.8636 14.8773 69.5022 14.7503C69.0909 14.6159 68.7027 14.4191 68.3513 14.1668L68.2657 14.1057V16.0853L68.2969 16.1C68.6464 16.2526 69.012 16.3655 69.3867 16.4365C69.7692 16.52 70.1591 16.5648 70.5506 16.5703C71.4486 16.6172 72.3357 16.356 73.065 15.8299C73.3647 15.5999 73.6057 15.3024 73.7684 14.9615C73.9311 14.6207 74.0108 14.2462 74.0011 13.8686C74.0159 13.3298 73.8372 12.8035 73.4974 12.3851C73.0217 11.8911 72.4351 11.5175 71.7862 11.2953C71.3492 11.1489 70.9379 10.9351 70.5671 10.6614C70.4825 10.5734 70.417 10.469 70.3747 10.3545C70.3324 10.2401 70.3141 10.1182 70.321 9.99636C70.3192 9.87621 70.3467 9.75743 70.4011 9.65027C70.4554 9.54311 70.535 9.45077 70.633 9.38123C70.8892 9.20403 71.197 9.11714 71.508 9.13429C71.8613 9.13597 72.2123 9.18989 72.5498 9.29431C72.8725 9.38839 73.1792 9.53054 73.4595 9.71599L73.5433 9.77349V7.89823L73.5112 7.88441C73.2135 7.76577 72.9038 7.6794 72.5877 7.62677C72.2539 7.56138 71.915 7.52632 71.5749 7.52202L71.5771 7.51979ZM62.9082 14.8885C62.5801 14.9056 62.2524 14.8484 61.9496 14.7211C61.6467 14.5938 61.3765 14.3998 61.1591 14.1534C60.7089 13.5595 60.4861 12.8241 60.5311 12.0802C60.4832 11.3182 60.7058 10.5637 61.1596 9.94956C61.3723 9.70134 61.639 9.50502 61.9392 9.37562C62.2394 9.24622 62.5652 9.18715 62.8917 9.20293C63.2084 9.18772 63.5244 9.24393 63.8163 9.36738C64.1083 9.49084 64.3688 9.67838 64.5784 9.91613C65.0288 10.5248 65.2473 11.2741 65.1945 12.0294C65.2465 12.7874 65.0424 13.5409 64.615 14.169C64.4065 14.4139 64.1436 14.6067 63.8473 14.7318C63.5511 14.857 63.2296 14.9111 62.9087 14.8898L62.9082 14.8885ZM63.0005 7.52068C62.3853 7.4868 61.7698 7.57936 61.1918 7.79264C60.6138 8.00592 60.0857 8.33541 59.64 8.76075C59.223 9.216 58.9008 9.74975 58.6922 10.3309C58.4837 10.912 58.393 11.5288 58.4253 12.1453C58.3958 12.7359 58.4856 13.3265 58.6893 13.8816C58.893 14.4368 59.2065 14.9452 59.611 15.3765C60.0324 15.7812 60.5318 16.0958 61.0788 16.301C61.6257 16.5062 62.2088 16.5978 62.7923 16.5703C63.3985 16.6 64.0042 16.5037 64.5712 16.2873C65.1382 16.0709 65.6542 15.7393 66.0864 15.3132C66.4999 14.8624 66.8201 14.3342 67.0285 13.759C67.2369 13.1839 67.3294 12.5732 67.3006 11.9621C67.3654 10.7696 66.9558 9.59982 66.1613 8.70815C65.7453 8.30228 65.2496 7.98726 64.7055 7.78308C64.1614 7.57889 63.5808 7.49 63.0005 7.52202V7.52068ZM55.3047 9.22522V7.72973H53.2738V16.3634H55.3047V11.9465C55.2756 11.2971 55.4528 10.6552 55.811 10.1127C55.9547 9.8964 56.1502 9.71956 56.3799 9.59839C56.6095 9.47722 56.8659 9.41559 57.1255 9.41912C57.3321 9.42226 57.5374 9.45223 57.7362 9.50827C57.9035 9.54546 58.0635 9.61023 58.2096 9.69994L58.2952 9.7619V7.71502L58.2622 7.70076C58.0074 7.6097 57.7374 7.56868 57.467 7.57996C56.9707 7.57508 56.489 7.74771 56.1088 8.06672C55.7529 8.37931 55.4837 8.77851 55.3274 9.22567L55.3047 9.22522ZM49.637 7.52157C48.7765 7.50424 47.9261 7.70871 47.1675 8.11531C46.47 8.49915 45.9029 9.08241 45.5388 9.79043C45.155 10.5602 44.9631 11.4114 44.9793 12.2715C44.9692 13.047 45.1564 13.8124 45.5232 14.4957C45.8713 15.1435 46.3989 15.677 47.0427 16.0322C47.7244 16.3992 48.4889 16.5851 49.263 16.572C50.1164 16.5994 50.962 16.4016 51.7146 15.9984L51.7414 15.9832V14.1222L51.6558 14.1846C51.3518 14.405 51.017 14.5794 50.6622 14.7021C50.3505 14.8185 50.0217 14.8822 49.6891 14.8907C49.338 14.9078 48.9872 14.8506 48.6596 14.723C48.332 14.5953 48.035 14.4 47.788 14.1498C47.2958 13.5829 47.0442 12.8463 47.0868 12.0967C47.0495 11.3262 47.3114 10.5711 47.8179 9.98923C48.0607 9.72968 48.3564 9.5252 48.685 9.38956C49.0135 9.25393 49.3673 9.19029 49.7225 9.20293C50.4224 9.21392 51.1002 9.44975 51.6558 9.87557L51.7409 9.93752V7.97623L51.7133 7.96063C51.4175 7.80867 51.1009 7.70156 50.7736 7.64281C50.4003 7.56376 50.0199 7.52298 49.6383 7.52113L49.637 7.52157ZM43.5815 7.72929H41.5507V16.3634H43.5815V7.72929ZM42.587 4.05142C42.2652 4.04631 41.9544 4.16818 41.7218 4.39064C41.6048 4.49801 41.5119 4.62906 41.4495 4.77509C41.387 4.92111 41.3563 5.07876 41.3594 5.23756C41.3559 5.39344 41.3859 5.54827 41.4474 5.69155C41.5089 5.83482 41.6005 5.9632 41.716 6.06799C41.9517 6.2871 42.2635 6.40575 42.5852 6.39873C42.9078 6.40516 43.2205 6.28684 43.458 6.06843C43.575 5.9644 43.668 5.83626 43.7307 5.69282C43.7935 5.54939 43.8244 5.39407 43.8213 5.23756C43.8229 5.08118 43.7924 4.92613 43.7316 4.78204C43.6708 4.63796 43.581 4.50791 43.4678 4.4C43.3517 4.28544 43.2136 4.19552 43.0619 4.13562C42.9101 4.07572 42.7479 4.04708 42.5848 4.05142H42.587ZM37.5175 7.09232V16.3639H39.5903V4.3162H36.7219L33.0756 13.2646L29.5373 4.3162H26.5508V16.363H28.4987V7.09142H28.5656L32.3018 16.363H33.7728L37.4511 7.09142L37.5175 7.09232Z" fill="#718087"/>
<path d="M9.97608 9.84382H0.422363V0.2901H9.97608V9.84382Z" fill="#718087"/>
<path d="M20.5247 9.84382H10.971V0.2901H20.5247V9.84382Z" fill="#718087"/>
<path d="M9.97608 20.396H0.422363V10.8422H9.97608V20.396Z" fill="#718087"/>
<path d="M20.5247 20.396H10.971V10.8422H20.5247V20.396Z" fill="#718087"/>
</svg>
